<svg xmlns="http://www.w3.org/2000/svg" xmlns:xlink="http://www.w3.org/1999/xlink" width="2000" zoomAndPan="magnify" viewBox="0 0 1500 1499.999933" height="2000" preserveAspectRatio="xMidYMid meet" version="1.0"><defs><filter x="0%" y="0%" width="100%" height="100%" id="de95062b23"><feColorMatrix values="0 0 0 0 1 0 0 0 0 1 0 0 0 0 1 0 0 0 1 0" color-interpolation-filters="sRGB"/></filter><mask id="d3899332c9"><g filter="url(#de95062b23)"><rect x="-150" width="1800" fill="#000000" y="-149.999993" height="1799.99992" fill-opacity="0.61"/></g></mask><clipPath id="1cfe74a508"><path d="M 326 3 L 431 3 L 431 129 L 326 129 Z M 326 3 " clip-rule="nonzero"/></clipPath><clipPath id="f6ea007ee0"><path d="M 150.703125 570.480469 L -1.039062 138.878906 L 411.460938 -6.144531 L 563.199219 425.457031 Z M 150.703125 570.480469 " clip-rule="nonzero"/></clipPath><clipPath id="93415fd70a"><path d="M 563.464844 425.367188 L 411.726562 -6.238281 L -0.773438 138.785156 L 150.964844 570.390625 Z M 563.464844 425.367188 " clip-rule="nonzero"/></clipPath><clipPath id="be2855402c"><path d="M 139 128 L 362 128 L 362 544 L 139 544 Z M 139 128 " clip-rule="nonzero"/></clipPath><clipPath id="196c78f8f2"><path d="M 150.703125 570.480469 L -1.039062 138.878906 L 411.460938 -6.144531 L 563.199219 425.457031 Z M 150.703125 570.480469 " clip-rule="nonzero"/></clipPath><clipPath id="065f3abc39"><path d="M 563.464844 425.367188 L 411.726562 -6.238281 L -0.773438 138.785156 L 150.964844 570.390625 Z M 563.464844 425.367188 " clip-rule="nonzero"/></clipPath><clipPath id="12a4d5127b"><rect x="0" width="562" y="0" height="572"/></clipPath><clipPath id="1f9a27244c"><path d="M 1254.175781 1268.222656 L 1408.675781 1268.222656 L 1408.675781 1451.972656 L 1254.175781 1451.972656 Z M 1254.175781 1268.222656 " clip-rule="nonzero"/></clipPath></defs><rect x="-150" width="1800" fill="#ffffff" y="-149.999993" height="1799.99992" fill-opacity="1"/><rect x="-150" width="1800" fill="#fff9e5" y="-149.999993" height="1799.99992" fill-opacity="1"/><g mask="url(#d3899332c9)"><g transform="matrix(1, 0, 0, 1, 897, 668)"><g clip-path="url(#12a4d5127b)"><g clip-path="url(#1cfe74a508)"><g clip-path="url(#f6ea007ee0)"><g clip-path="url(#93415fd70a)"><path fill="#dfd1a7" d="M 388.5 25.964844 C 386.460938 30.390625 384.824219 35.019531 383.261719 39.761719 C 382.414062 42.335938 380.253906 44.28125 377.59375 44.84375 L 369.441406 46.585938 L 369.375 46.5 C 370.65625 43.21875 364.589844 40.875 362.382812 42.652344 C 360.847656 43.882812 360.292969 46.910156 359.597656 48.660156 C 359.59375 48.675781 359.574219 48.695312 359.550781 48.703125 L 351.421875 50.4375 C 351.421875 50.4375 351.347656 50.402344 351.34375 50.363281 C 351.898438 47.535156 347.007812 46.324219 345.046875 47.1875 C 342.960938 48.105469 342.425781 50.558594 341.660156 52.496094 C 341.652344 52.511719 341.632812 52.53125 341.613281 52.539062 L 330.917969 54.824219 C 329.960938 55.027344 328.816406 55.921875 328.398438 56.800781 L 326.792969 60.082031 C 326.363281 60.964844 326.792969 61.839844 327.761719 62.03125 L 371.53125 70.777344 C 372.273438 70.925781 372.71875 71.695312 372.480469 72.421875 C 369.433594 81.628906 366.59375 90.257812 364.644531 96.136719 C 364.546875 96.429688 364.316406 96.644531 364.023438 96.734375 C 361.347656 97.527344 358.671875 98.320312 355.984375 99.117188 C 353.980469 99.710938 351.949219 100.226562 349.96875 100.886719 C 348.167969 101.496094 346.082031 102.042969 345.207031 103.910156 C 344.46875 105.503906 343.925781 107.226562 343.289062 108.859375 C 342.789062 110.148438 342.402344 111.507812 343.53125 112.609375 C 344.625 113.683594 346.675781 113.394531 348.125 113.441406 C 350.113281 113.507812 352.101562 113.566406 354.078125 113.636719 C 356.804688 113.726562 359.53125 113.808594 362.257812 113.902344 C 362.644531 113.914062 362.9375 114.28125 362.851562 114.667969 C 362.527344 116.042969 362.152344 117.398438 361.804688 118.769531 C 361.507812 119.964844 361.015625 121.335938 361.167969 122.582031 C 361.367188 124.09375 363.207031 125.425781 364.617188 124.410156 C 365.578125 123.726562 365.894531 122.488281 366.441406 121.503906 C 366.957031 120.582031 367.484375 119.65625 368.015625 118.738281 C 368.230469 118.367188 368.433594 118 368.648438 117.625 C 368.851562 117.28125 369.304688 117.210938 369.59375 117.464844 C 371.042969 118.738281 372.492188 120.007812 373.941406 121.28125 C 375.101562 122.292969 376.277344 123.289062 377.410156 124.324219 C 378.644531 125.449219 379.898438 126.691406 381.261719 127.644531 C 382.640625 128.621094 384.539062 128.039062 385.167969 126.519531 C 385.765625 125.097656 386.308594 123.644531 386.90625 122.222656 C 387.289062 121.335938 387.617188 120.402344 387.695312 119.4375 C 387.78125 118.304688 387.382812 117.53125 386.910156 116.535156 C 385.859375 114.382812 384.558594 112.441406 383.332031 110.398438 C 382.140625 108.417969 380.976562 106.40625 379.804688 104.40625 C 379.648438 104.140625 379.625 103.828125 379.761719 103.542969 C 382.304688 98.050781 386.261719 89.472656 390.542969 80.230469 C 390.859375 79.550781 391.707031 79.289062 392.351562 79.679688 L 427.203125 100.773438 C 428.039062 101.285156 428.953125 100.925781 429.238281 99.984375 L 430.589844 95.417969 C 430.871094 94.464844 430.644531 93.011719 430.070312 92.1875 L 425.449219 85.515625 C 425.449219 85.515625 425.433594 85.46875 425.441406 85.457031 C 425.757812 84.664062 426.0625 83.878906 426.375 83.085938 C 426.84375 81.921875 427.460938 80.542969 427.0625 79.273438 C 426.355469 76.972656 421.460938 74.9375 419.835938 77.289062 C 419.8125 77.320312 419.761719 77.3125 419.738281 77.285156 L 414.976562 70.425781 C 414.976562 70.425781 414.960938 70.382812 414.96875 70.367188 C 415.71875 68.460938 417.003906 66.304688 416.128906 64.238281 C 415.304688 62.289062 410.925781 59.820312 409.359375 62.1875 C 409.335938 62.222656 409.289062 62.226562 409.265625 62.199219 L 405.523438 56.800781 C 403.976562 54.574219 403.730469 51.691406 404.867188 49.230469 C 408.085938 42.273438 411.292969 35.261719 413.242188 27.824219 C 414.800781 21.886719 417.601562 10.328125 412.527344 5.324219 C 403.980469 -3.09375 391.167969 20.078125 388.464844 25.964844 Z M 388.5 25.964844 " fill-opacity="1" fill-rule="nonzero"/></g></g></g><g clip-path="url(#be2855402c)"><g clip-path="url(#196c78f8f2)"><g clip-path="url(#065f3abc39)"><path fill="#dfd1a7" d="M 140.019531 540.027344 C 140.261719 540.71875 140.894531 541.25 141.675781 541.324219 C 147.273438 541.851562 152.382812 542.28125 157.289062 542.621094 C 158.367188 542.699219 159.296875 541.890625 159.375 540.8125 C 159.453125 539.734375 158.644531 538.808594 157.566406 538.730469 C 152.6875 538.390625 147.613281 537.960938 142.039062 537.4375 C 140.964844 537.332031 140.015625 538.121094 139.914062 539.199219 C 139.890625 539.488281 139.929688 539.773438 140.019531 540.027344 Z M 171.195312 542.160156 C 171.457031 542.894531 172.140625 543.433594 172.964844 543.464844 C 178.375 543.652344 183.664062 543.722656 188.679688 543.664062 C 189.761719 543.65625 190.625 542.769531 190.605469 541.691406 C 190.59375 540.605469 189.710938 539.742188 188.628906 539.765625 C 183.664062 539.816406 178.4375 539.75 173.089844 539.5625 C 172.011719 539.523438 171.113281 540.371094 171.070312 541.449219 C 171.058594 541.699219 171.097656 541.945312 171.175781 542.167969 Z M 151.085938 408.324219 L 151.191406 408.621094 C 151.546875 409.636719 152.671875 410.167969 153.695312 409.804688 C 154.710938 409.449219 155.234375 408.339844 154.878906 407.328125 L 154.78125 407.050781 C 153.179688 402.496094 152.289062 397.640625 152.144531 392.621094 C 152.109375 391.546875 151.207031 390.699219 150.132812 390.734375 C 149.054688 390.765625 148.210938 391.667969 148.242188 392.746094 C 148.40625 398.164062 149.371094 403.414062 151.105469 408.34375 Z M 158.707031 422.226562 C 158.773438 422.414062 158.875 422.601562 159.011719 422.777344 C 162.242188 426.941406 166.128906 430.707031 170.582031 433.988281 C 171.449219 434.625 172.671875 434.441406 173.316406 433.570312 C 173.953125 432.707031 173.769531 431.484375 172.898438 430.839844 C 168.742188 427.773438 165.105469 424.253906 162.101562 420.378906 C 161.441406 419.523438 160.214844 419.371094 159.355469 420.03125 C 158.675781 420.554688 158.4375 421.457031 158.707031 422.226562 Z M 202.429688 541.773438 C 202.710938 542.578125 203.515625 543.136719 204.40625 543.070312 C 209.78125 542.710938 215.050781 542.183594 220.089844 541.5 C 221.164062 541.359375 221.902344 540.367188 221.765625 539.304688 C 221.621094 538.230469 220.632812 537.488281 219.566406 537.628906 C 214.625 538.300781 209.4375 538.816406 204.152344 539.179688 C 203.074219 539.246094 202.261719 540.175781 202.335938 541.261719 C 202.351562 541.441406 202.386719 541.617188 202.445312 541.78125 Z M 150.0625 377.835938 C 150.269531 378.429688 150.765625 378.925781 151.429688 379.085938 C 152.472656 379.351562 153.535156 378.71875 153.800781 377.671875 C 155.003906 372.835938 156.847656 368.09375 159.257812 363.585938 C 159.765625 362.640625 159.40625 361.445312 158.453125 360.941406 C 157.507812 360.433594 156.320312 360.789062 155.804688 361.746094 C 153.238281 366.542969 151.289062 371.582031 150.007812 376.730469 C 149.90625 377.113281 149.929688 377.5 150.054688 377.851562 Z M 183.480469 440.679688 C 183.660156 441.1875 184.046875 441.621094 184.582031 441.839844 C 189.554688 443.886719 194.75 445.335938 200.035156 446.164062 C 201.097656 446.332031 202.097656 445.597656 202.269531 444.535156 C 202.4375 443.464844 201.703125 442.472656 200.644531 442.300781 C 195.65625 441.519531 190.761719 440.148438 186.066406 438.226562 C 185.070312 437.8125 183.929688 438.296875 183.523438 439.292969 C 183.339844 439.753906 183.339844 440.25 183.492188 440.675781 Z M 164.613281 350.515625 C 164.71875 350.8125 164.90625 351.09375 165.160156 351.324219 C 165.96875 352.042969 167.195312 351.980469 167.914062 351.171875 C 170.363281 348.433594 173.03125 345.933594 175.859375 343.742188 C 176.976562 342.878906 178.128906 342.042969 179.296875 341.246094 C 180.183594 340.640625 180.425781 339.429688 179.8125 338.53125 C 179.207031 337.644531 177.996094 337.402344 177.097656 338.015625 C 175.859375 338.859375 174.640625 339.746094 173.464844 340.652344 C 170.449219 342.984375 167.59375 345.660156 164.992188 348.5625 C 164.503906 349.105469 164.375 349.867188 164.605469 350.519531 Z M 233.347656 537.507812 C 233.667969 538.417969 234.628906 538.972656 235.609375 538.765625 C 239.398438 537.9375 243.148438 537.003906 246.777344 535.960938 C 248.148438 535.566406 249.511719 535.160156 250.882812 534.730469 C 251.90625 534.40625 252.480469 533.300781 252.160156 532.277344 C 251.816406 531.234375 250.730469 530.679688 249.707031 531 C 248.382812 531.417969 247.042969 531.828125 245.707031 532.210938 C 242.15625 533.222656 238.484375 534.144531 234.773438 534.953125 C 233.71875 535.1875 233.058594 536.222656 233.28125 537.28125 C 233.308594 537.359375 233.324219 537.441406 233.351562 537.515625 Z M 214.070312 445.429688 C 214.359375 446.246094 215.160156 446.804688 216.0625 446.734375 C 221.273438 446.324219 226.5625 445.367188 231.789062 443.886719 C 232.828125 443.597656 233.433594 442.507812 233.132812 441.476562 C 232.832031 440.453125 231.75 439.835938 230.71875 440.136719 C 225.738281 441.550781 220.695312 442.472656 215.75 442.851562 C 214.675781 442.929688 213.867188 443.871094 213.953125 444.953125 C 213.964844 445.125 214 445.296875 214.054688 445.449219 Z M 190.125 332.941406 C 190.125 332.941406 190.144531 332.996094 190.15625 333.027344 C 190.558594 334.023438 191.703125 334.511719 192.699219 334.101562 C 193.824219 333.644531 194.988281 333.195312 196.15625 332.785156 C 199.71875 331.53125 203.464844 330.5 207.296875 329.734375 C 208.359375 329.519531 209.039062 328.492188 208.824219 327.429688 C 208.617188 326.378906 207.582031 325.691406 206.519531 325.902344 C 202.511719 326.707031 198.589844 327.789062 194.847656 329.101562 C 193.625 329.53125 192.40625 330 191.214844 330.480469 C 190.238281 330.871094 189.765625 331.953125 190.109375 332.933594 Z M 263.078125 528.03125 C 263.078125 528.03125 263.109375 528.117188 263.125 528.164062 C 263.558594 529.148438 264.710938 529.609375 265.695312 529.175781 C 270.5625 527.054688 275.324219 524.664062 279.851562 522.070312 C 280.789062 521.53125 281.113281 520.34375 280.574219 519.40625 C 280.03125 518.472656 278.84375 518.148438 277.90625 518.6875 C 273.515625 521.207031 268.878906 523.53125 264.140625 525.59375 C 263.195312 526 262.742188 527.074219 263.078125 528.03125 Z M 244.007812 437.070312 C 244.03125 437.136719 244.054688 437.203125 244.09375 437.273438 C 244.558594 438.25 245.726562 438.652344 246.699219 438.1875 C 251.371094 435.929688 256 433.238281 260.445312 430.191406 C 261.332031 429.582031 261.5625 428.375 260.949219 427.480469 C 260.34375 426.59375 259.125 426.363281 258.238281 426.972656 C 253.957031 429.914062 249.5 432.503906 244.996094 434.671875 C 244.085938 435.113281 243.671875 436.148438 243.996094 437.074219 Z M 220.589844 326.679688 C 220.867188 327.460938 221.628906 328.007812 222.5 327.988281 C 227.542969 327.808594 232.6875 328.027344 237.796875 328.632812 C 238.867188 328.761719 239.832031 327.988281 239.964844 326.917969 C 240.09375 325.84375 239.320312 324.878906 238.25 324.75 C 232.949219 324.128906 227.601562 323.894531 222.359375 324.078125 C 221.285156 324.113281 220.4375 325.015625 220.476562 326.101562 C 220.484375 326.308594 220.519531 326.507812 220.582031 326.683594 Z M 290.132812 512.484375 C 290.195312 512.660156 290.28125 512.839844 290.414062 513.003906 C 291.050781 513.867188 292.277344 514.054688 293.140625 513.40625 C 297.453125 510.207031 301.535156 506.757812 305.253906 503.164062 C 306.027344 502.410156 306.050781 501.175781 305.296875 500.402344 C 304.542969 499.628906 303.308594 499.605469 302.535156 500.359375 C 298.925781 503.84375 294.980469 507.183594 290.804688 510.285156 C 290.097656 510.804688 289.847656 511.707031 290.125 512.5 Z M 269.738281 419.519531 C 269.824219 419.761719 269.953125 419.988281 270.132812 420.183594 C 270.855469 420.980469 272.089844 421.039062 272.898438 420.3125 C 273.308594 419.933594 273.730469 419.546875 274.140625 419.167969 C 277.5625 415.964844 280.835938 412.476562 283.867188 408.824219 C 284.554688 408.003906 284.445312 406.769531 283.605469 406.074219 C 282.773438 405.390625 281.550781 405.5 280.855469 406.335938 C 277.929688 409.863281 274.769531 413.222656 271.460938 416.328125 C 271.058594 416.703125 270.65625 417.066406 270.253906 417.433594 C 269.652344 417.976562 269.476562 418.804688 269.726562 419.523438 Z M 251.519531 330.285156 C 251.730469 330.878906 252.207031 331.355469 252.859375 331.519531 C 257.769531 332.835938 262.652344 334.519531 267.371094 336.507812 C 268.359375 336.925781 269.507812 336.460938 269.9375 335.46875 C 270.351562 334.46875 269.886719 333.324219 268.898438 332.90625 C 264.019531 330.835938 258.957031 329.105469 253.878906 327.738281 C 252.839844 327.460938 251.757812 328.074219 251.484375 329.125 C 251.375 329.519531 251.40625 329.917969 251.527344 330.269531 Z M 312.488281 490.789062 C 312.609375 491.132812 312.832031 491.449219 313.136719 491.6875 C 313.988281 492.351562 315.21875 492.191406 315.882812 491.339844 C 319.175781 487.09375 322.101562 482.613281 324.605469 478.023438 C 325.125 477.074219 324.769531 475.890625 323.820312 475.371094 C 322.871094 474.851562 321.683594 475.207031 321.175781 476.152344 C 318.78125 480.554688 315.953125 484.859375 312.789062 488.941406 C 312.363281 489.488281 312.273438 490.183594 312.488281 490.789062 Z M 289.636719 395.546875 C 289.777344 395.953125 290.054688 396.3125 290.449219 396.558594 C 291.367188 397.125 292.574219 396.835938 293.132812 395.925781 C 295.933594 391.378906 298.425781 386.644531 300.507812 381.84375 C 300.9375 380.851562 300.484375 379.703125 299.492188 379.269531 C 298.5 378.839844 297.351562 379.296875 296.921875 380.285156 C 294.898438 384.917969 292.515625 389.488281 289.800781 393.867188 C 289.476562 394.390625 289.433594 395.011719 289.621094 395.539062 Z M 280.222656 342.398438 C 280.371094 342.816406 280.660156 343.1875 281.066406 343.425781 C 285.472656 346.042969 289.71875 348.976562 293.699219 352.140625 C 294.542969 352.808594 295.769531 352.675781 296.449219 351.828125 C 297.117188 350.988281 296.984375 349.761719 296.136719 349.082031 C 292.015625 345.796875 287.625 342.765625 283.0625 340.066406 C 282.140625 339.511719 280.9375 339.824219 280.386719 340.746094 C 280.074219 341.265625 280.039062 341.871094 280.222656 342.398438 Z M 327.332031 463.453125 C 327.527344 464.003906 327.957031 464.457031 328.546875 464.65625 C 329.570312 465 330.679688 464.464844 331.027344 463.441406 C 332.726562 458.464844 334.027344 453.269531 334.90625 447.992188 C 335.085938 446.925781 334.363281 445.921875 333.300781 445.75 C 332.238281 445.578125 331.230469 446.292969 331.058594 447.355469 C 330.21875 452.421875 328.96875 457.410156 327.332031 462.179688 C 327.1875 462.613281 327.195312 463.054688 327.335938 463.460938 Z M 302 366.953125 C 302.207031 367.546875 302.699219 368.03125 303.351562 368.195312 C 304.402344 368.46875 305.46875 367.847656 305.730469 366.804688 C 305.964844 365.890625 306.191406 364.984375 306.402344 364.070312 C 309.386719 367.359375 312.15625 370.835938 314.644531 374.425781 C 315.261719 375.308594 316.480469 375.539062 317.363281 374.917969 C 318.246094 374.296875 318.460938 373.085938 317.851562 372.199219 C 314.855469 367.898438 311.492188 363.738281 307.828125 359.859375 C 307.683594 359.699219 307.519531 359.585938 307.335938 359.488281 C 307.839844 356.691406 308.210938 353.878906 308.449219 351.109375 C 308.542969 350.039062 307.738281 349.097656 306.667969 349.003906 C 305.597656 348.910156 304.65625 349.710938 304.5625 350.78125 C 304.144531 355.75 303.269531 360.820312 301.953125 365.832031 C 301.855469 366.226562 301.867188 366.617188 301.992188 366.96875 Z M 332.46875 432.761719 C 332.734375 433.523438 333.445312 434.0625 334.300781 434.074219 C 335.378906 434.078125 336.261719 433.210938 336.265625 432.132812 C 336.300781 426.851562 335.933594 421.519531 335.171875 416.257812 C 335.003906 415.179688 334.027344 414.445312 332.957031 414.601562 C 331.886719 414.753906 331.148438 415.746094 331.300781 416.816406 C 332.039062 421.871094 332.390625 427.015625 332.359375 432.097656 C 332.355469 432.332031 332.394531 432.554688 332.46875 432.761719 Z M 322.300781 387.414062 C 322.324219 387.480469 322.347656 387.554688 322.382812 387.617188 C 323.976562 390.917969 325.410156 394.367188 326.636719 397.855469 C 327.097656 399.164062 327.542969 400.53125 327.953125 401.882812 C 328.28125 402.917969 329.363281 403.5 330.386719 403.175781 C 331.414062 402.855469 331.996094 401.773438 331.683594 400.742188 C 331.253906 399.347656 330.804688 397.960938 330.324219 396.597656 L 330.3125 396.5625 C 329.039062 392.933594 327.542969 389.351562 325.894531 385.925781 C 325.429688 384.953125 324.257812 384.546875 323.285156 385.015625 C 322.390625 385.453125 321.964844 386.492188 322.289062 387.417969 Z M 304.488281 335.984375 C 304.785156 336.820312 305.621094 337.378906 306.539062 337.277344 C 307.613281 337.160156 308.386719 336.195312 308.269531 335.125 C 307.710938 329.992188 306.636719 324.929688 305.097656 320.089844 L 304.886719 319.496094 C 304.539062 318.433594 303.464844 317.910156 302.445312 318.242188 C 301.425781 318.574219 300.859375 319.675781 301.195312 320.707031 L 301.398438 321.28125 C 302.851562 325.875 303.859375 330.675781 304.390625 335.558594 C 304.40625 335.714844 304.449219 335.863281 304.492188 335.992188 Z M 289.222656 291.894531 L 289.230469 291.914062 C 290.871094 296.433594 292.890625 300.878906 294.839844 305.1875 L 295.402344 306.4375 C 295.84375 307.417969 297 307.855469 297.980469 307.410156 C 298.960938 306.964844 299.410156 305.820312 298.953125 304.832031 L 298.390625 303.582031 C 296.480469 299.34375 294.492188 294.960938 292.90625 290.585938 C 292.550781 289.574219 291.414062 289.046875 290.40625 289.414062 C 289.390625 289.769531 288.871094 290.890625 289.222656 291.894531 Z M 285.578125 276.742188 C 285.871094 277.578125 286.707031 278.125 287.628906 278.035156 C 288.699219 277.917969 289.476562 276.964844 289.371094 275.890625 C 288.859375 271.027344 289.007812 265.953125 289.773438 260.8125 C 289.925781 259.746094 289.195312 258.753906 288.136719 258.59375 C 287.070312 258.4375 286.078125 259.171875 285.917969 260.226562 C 285.09375 265.6875 284.941406 271.09375 285.492188 276.289062 C 285.511719 276.445312 285.539062 276.59375 285.589844 276.738281 Z M 289.917969 246.074219 C 290.105469 246.601562 290.519531 247.050781 291.09375 247.269531 C 292.101562 247.644531 293.226562 247.113281 293.601562 246.101562 C 295.242188 241.59375 297.371094 236.886719 299.917969 232.136719 C 300.421875 231.179688 300.070312 230.003906 299.121094 229.484375 C 298.175781 228.976562 296.988281 229.332031 296.46875 230.28125 C 293.835938 235.199219 291.628906 240.070312 289.925781 244.761719 C 289.761719 245.203125 289.773438 245.667969 289.917969 246.074219 Z M 304.457031 218.496094 C 304.59375 218.882812 304.847656 219.222656 305.207031 219.46875 C 306.097656 220.070312 307.316406 219.839844 307.914062 218.9375 C 310.636719 214.902344 313.621094 210.800781 317.039062 206.417969 C 317.703125 205.566406 317.546875 204.347656 316.695312 203.683594 C 315.84375 203.019531 314.613281 203.179688 313.960938 204.027344 C 310.484375 208.488281 307.445312 212.648438 304.675781 216.761719 C 304.320312 217.296875 304.257812 217.933594 304.457031 218.496094 Z M 323.066406 193.394531 C 323.195312 193.757812 323.4375 194.09375 323.785156 194.34375 C 324.65625 194.960938 325.882812 194.753906 326.503906 193.882812 C 329.527344 189.613281 332.378906 185.335938 335.214844 180.777344 C 335.78125 179.863281 335.507812 178.660156 334.589844 178.09375 C 333.671875 177.523438 332.472656 177.796875 331.902344 178.714844 C 329.101562 183.199219 326.296875 187.425781 323.324219 191.625 C 322.945312 192.164062 322.867188 192.824219 323.070312 193.40625 Z M 339.628906 166.925781 C 339.777344 167.355469 340.085938 167.738281 340.519531 167.984375 C 341.457031 168.507812 342.648438 168.164062 343.171875 167.222656 C 345.542969 162.964844 347.941406 158.425781 350.527344 153.363281 C 351.015625 152.398438 350.636719 151.222656 349.675781 150.730469 C 348.710938 150.242188 347.53125 150.617188 347.042969 151.582031 C 344.480469 156.601562 342.09375 161.101562 339.757812 165.320312 C 339.476562 165.828125 339.445312 166.40625 339.625 166.914062 Z M 353.894531 139.132812 C 354.058594 139.605469 354.398438 140.007812 354.890625 140.242188 C 355.859375 140.71875 357.027344 140.308594 357.496094 139.324219 C 358.757812 136.71875 360.035156 134.058594 361.347656 131.320312 C 361.8125 130.355469 361.402344 129.1875 360.429688 128.710938 C 359.453125 128.253906 358.285156 128.664062 357.824219 129.628906 C 356.519531 132.363281 355.242188 135.023438 353.980469 137.621094 C 353.746094 138.109375 353.722656 138.648438 353.890625 139.121094 Z M 353.894531 139.132812 " fill-opacity="1" fill-rule="nonzero"/></g></g></g></g></g></g><g clip-path="url(#1f9a27244c)"><path fill="#dfd1a7" d="M 1408.066406 1420.875 C 1407.761719 1420.230469 1407.539062 1419.574219 1407.363281 1418.902344 C 1405.648438 1412.316406 1404.042969 1405.699219 1402.203125 1399.144531 C 1397.542969 1382.503906 1392.75 1365.894531 1388.050781 1349.265625 C 1386.878906 1345.121094 1386.34375 1340.828125 1385.492188 1336.609375 C 1383.792969 1328.097656 1381.671875 1319.6875 1379.640625 1311.257812 C 1378.058594 1304.699219 1376.554688 1298.128906 1374.949219 1291.582031 C 1374.273438 1288.867188 1374.191406 1288.886719 1371.570312 1289.652344 C 1371.457031 1289.679688 1371.320312 1289.625 1371.171875 1289.605469 C 1370.921875 1288.691406 1370.703125 1287.757812 1370.40625 1286.84375 C 1369.945312 1285.433594 1369.621094 1285.257812 1368.136719 1285.449219 C 1367.886719 1285.488281 1367.636719 1285.5625 1367.378906 1285.609375 C 1366.121094 1285.855469 1366.140625 1285.847656 1365.769531 1284.519531 C 1365.191406 1282.414062 1364.542969 1280.328125 1363.972656 1278.210938 C 1363.730469 1277.34375 1363.277344 1277.039062 1362.429688 1277.351562 C 1362.1875 1277.445312 1361.941406 1277.511719 1361.699219 1277.601562 C 1360.898438 1277.90625 1360.398438 1277.804688 1360.175781 1276.816406 C 1359.796875 1275.128906 1358.957031 1273.578125 1358.589844 1271.867188 C 1358.421875 1271.09375 1357.988281 1270.667969 1357.046875 1271.054688 C 1356.296875 1271.359375 1355.550781 1271.8125 1354.617188 1271.75 C 1354.542969 1271.433594 1354.480469 1271.121094 1354.40625 1270.816406 C 1354.332031 1270.503906 1354.257812 1270.1875 1354.164062 1269.882812 C 1353.730469 1268.488281 1353.289062 1268.203125 1351.902344 1268.730469 C 1346.140625 1270.9375 1340.179688 1272.617188 1334.554688 1275.164062 C 1320.382812 1281.582031 1305.925781 1287.289062 1291.652344 1293.464844 C 1282.078125 1297.609375 1272.769531 1302.246094 1263.851562 1307.65625 C 1260.867188 1309.464844 1258.191406 1311.664062 1255.847656 1314.265625 C 1254.933594 1315.273438 1254.488281 1316.445312 1254.394531 1317.757812 C 1254.277344 1319.363281 1254.277344 1320.976562 1254.535156 1322.566406 C 1256.207031 1332.777344 1258.355469 1342.898438 1260.941406 1352.914062 C 1265.78125 1371.636719 1270.691406 1390.34375 1276.085938 1408.921875 C 1279.492188 1420.636719 1282.539062 1432.472656 1286.515625 1444.023438 C 1286.996094 1445.417969 1287.523438 1446.8125 1287.894531 1448.234375 C 1288.660156 1451.199219 1289.8125 1452.148438 1292.839844 1452.230469 C 1295.628906 1452.316406 1298.355469 1451.816406 1301.050781 1451.253906 C 1307.402344 1449.933594 1313.734375 1448.511719 1320.085938 1447.207031 C 1327.890625 1445.601562 1335.765625 1444.355469 1343.484375 1442.351562 C 1355.679688 1439.175781 1367.609375 1435.132812 1379.675781 1431.539062 C 1388.660156 1428.863281 1397.367188 1425.300781 1406.507812 1423.128906 C 1406.691406 1423.082031 1406.875 1423.007812 1407.050781 1422.9375 C 1408.140625 1422.511719 1408.519531 1421.890625 1408.046875 1420.875 Z M 1363.242188 1279.570312 C 1363.859375 1281.445312 1364.15625 1283.410156 1364.488281 1285.359375 C 1364.652344 1286.335938 1363.878906 1286.347656 1363.289062 1286.476562 C 1360.460938 1287.101562 1357.636719 1287.683594 1354.820312 1288.332031 C 1336.78125 1292.46875 1318.914062 1297.25 1301.199219 1302.585938 C 1291.417969 1305.53125 1281.496094 1307.976562 1271.800781 1311.210938 C 1271.699219 1311.246094 1271.558594 1311.191406 1271.441406 1311.171875 C 1275.023438 1308.746094 1356.84375 1280.558594 1363.25 1279.558594 Z M 1355.523438 1273.605469 C 1357.609375 1272.828125 1357.601562 1272.800781 1358.15625 1274.871094 C 1358.300781 1275.421875 1358.449219 1275.988281 1358.605469 1276.539062 C 1358.765625 1277.09375 1358.921875 1277.640625 1359.097656 1278.25 C 1327.03125 1288.515625 1295.769531 1300.839844 1264.347656 1312.734375 C 1265.964844 1311.605469 1267.773438 1310.886719 1269.527344 1310.054688 C 1285.382812 1302.558594 1301.511719 1295.726562 1317.6875 1288.96875 C 1330.242188 1283.722656 1342.746094 1278.339844 1355.515625 1273.605469 Z M 1264.644531 1309.390625 C 1274.867188 1302.640625 1285.769531 1297.203125 1297.003906 1292.355469 C 1309.683594 1286.882812 1322.597656 1281.96875 1335.246094 1276.421875 C 1337.1875 1275.570312 1339.21875 1274.933594 1341.203125 1274.203125 C 1344.921875 1272.828125 1348.78125 1271.804688 1352.367188 1270.003906 C 1352.511719 1270.261719 1352.660156 1270.410156 1352.6875 1270.578125 C 1353.105469 1272.996094 1353.085938 1272.542969 1351.136719 1273.308594 C 1323.984375 1283.972656 1297.117188 1295.3125 1270.96875 1308.273438 C 1266.722656 1310.378906 1262.53125 1312.578125 1258.3125 1314.738281 C 1260.113281 1312.585938 1262.328125 1310.933594 1264.636719 1309.410156 Z M 1260.433594 1315.945312 C 1269.308594 1312.6875 1278.4375 1310.296875 1287.597656 1308.023438 C 1301.308594 1304.617188 1314.804688 1300.445312 1328.472656 1296.871094 C 1340.953125 1293.601562 1353.492188 1290.546875 1366.113281 1287.878906 C 1366.546875 1287.785156 1367.007812 1287.757812 1367.441406 1287.683594 C 1369.058594 1287.417969 1368.976562 1287.425781 1369.363281 1288.976562 C 1369.621094 1290.011719 1369.050781 1290.214844 1368.328125 1290.398438 C 1364.535156 1291.378906 1360.738281 1292.339844 1356.945312 1293.316406 C 1345.199219 1296.355469 1333.464844 1299.457031 1321.703125 1302.429688 C 1304.402344 1306.804688 1287.0625 1311.015625 1269.613281 1314.792969 C 1266.667969 1315.429688 1263.75 1316.203125 1260.8125 1316.925781 C 1259.964844 1317.136719 1259.105469 1317.265625 1257.90625 1317.0625 C 1258.863281 1316.390625 1259.667969 1316.222656 1260.425781 1315.945312 Z M 1404.328125 1421.089844 C 1398.898438 1423.285156 1393.265625 1424.867188 1387.691406 1426.59375 C 1372.355469 1431.335938 1357.054688 1436.230469 1341.535156 1440.359375 C 1333.957031 1442.371094 1326.207031 1443.617188 1318.535156 1445.214844 C 1312.183594 1446.535156 1305.925781 1448.28125 1299.601562 1449.703125 C 1298.160156 1450.023438 1296.710938 1450.320312 1295.25 1450.570312 C 1294.171875 1450.753906 1293.082031 1450.820312 1291.992188 1450.597656 C 1290.671875 1450.328125 1289.894531 1449.601562 1289.480469 1448.269531 C 1286.527344 1438.898438 1283.703125 1429.480469 1281.117188 1420 C 1279.121094 1412.6875 1277.101562 1405.382812 1274.9375 1398.117188 C 1270.507812 1383.207031 1266.953125 1368.074219 1262.992188 1353.042969 C 1260.96875 1345.398438 1259.640625 1337.605469 1257.949219 1329.886719 C 1257.3125 1326.996094 1256.742188 1324.097656 1256.160156 1321.210938 C 1255.992188 1320.398438 1255.808594 1319.585938 1256.085938 1318.679688 C 1258.921875 1319.242188 1261.625 1318.457031 1264.265625 1317.785156 C 1274.605469 1315.152344 1285.113281 1313.269531 1295.472656 1310.738281 C 1312.757812 1306.511719 1330.066406 1302.382812 1347.25 1297.757812 C 1355.496094 1295.542969 1363.859375 1293.769531 1372.078125 1291.40625 C 1373.285156 1291.054688 1373.371094 1291.089844 1373.683594 1292.300781 C 1374.433594 1295.226562 1374.941406 1298.199219 1375.613281 1301.144531 C 1377.394531 1308.835938 1379.003906 1316.574219 1380.71875 1324.285156 C 1382.410156 1331.871094 1383.804688 1339.519531 1385.4375 1347.117188 C 1386.8125 1353.515625 1388.667969 1359.820312 1390.773438 1366.023438 C 1392.609375 1371.453125 1393.988281 1376.992188 1395.296875 1382.5625 C 1397.023438 1389.882812 1399.433594 1397.019531 1401.261719 1404.304688 C 1402.5 1409.234375 1404.03125 1414.0625 1405.40625 1418.945312 C 1405.859375 1420.535156 1405.824219 1420.527344 1404.355469 1421.117188 Z M 1404.328125 1421.089844 " fill-opacity="1" fill-rule="nonzero"/></g><path fill="#dfd1a7" d="M 1357.683594 1365.609375 C 1354.074219 1361.222656 1349.261719 1359.203125 1343.992188 1358 C 1340.59375 1357.226562 1337.140625 1357.226562 1333.6875 1358.019531 C 1330.253906 1358.8125 1326.6875 1359.25 1323.4375 1360.632812 C 1315.351562 1364.078125 1310.050781 1370.179688 1307.273438 1378.480469 C 1306.488281 1380.816406 1306.203125 1383.273438 1306.339844 1385.699219 C 1306.800781 1393.558594 1309.617188 1400.574219 1314.398438 1406.796875 C 1317.558594 1410.90625 1321.621094 1413.667969 1326.707031 1414.894531 C 1329.285156 1415.511719 1331.886719 1415.828125 1334.507812 1415.828125 C 1343.382812 1415.957031 1351 1413.113281 1357.183594 1406.574219 C 1362.753906 1400.695312 1365.910156 1393.871094 1365.503906 1385.738281 C 1365.132812 1378.230469 1362.511719 1371.5 1357.675781 1365.617188 Z M 1345.664062 1361.03125 C 1344.8125 1362.210938 1343.714844 1362.71875 1342.734375 1363.367188 C 1342.441406 1363.558594 1342.109375 1363.511719 1341.847656 1363.273438 C 1340.585938 1362.121094 1339.144531 1361.195312 1337.75 1360.144531 C 1340.398438 1360.070312 1342.929688 1360.523438 1345.671875 1361.03125 Z M 1324.214844 1389.265625 C 1327.648438 1388.453125 1331.101562 1387.703125 1334.535156 1386.84375 C 1335.449219 1386.613281 1335.800781 1386.882812 1336.050781 1387.710938 C 1336.992188 1390.789062 1337.980469 1393.84375 1338.941406 1396.910156 C 1338.996094 1397.09375 1339.042969 1397.277344 1339.089844 1397.472656 C 1339.226562 1398 1338.875 1398.117188 1338.480469 1398.238281 C 1335.582031 1399.097656 1332.746094 1400.121094 1330.011719 1401.433594 C 1329.292969 1401.785156 1328.96875 1401.488281 1328.628906 1400.925781 C 1326.679688 1397.664062 1324.851562 1394.351562 1323.4375 1390.816406 C 1322.960938 1389.605469 1322.988281 1389.558594 1324.214844 1389.265625 Z M 1321.972656 1386.566406 C 1320.882812 1382.699219 1320.308594 1378.792969 1320.835938 1374.769531 C 1320.910156 1374.234375 1320.964844 1373.726562 1321.640625 1373.652344 C 1324.585938 1373.355469 1327.484375 1372.867188 1330.34375 1372.015625 C 1331.082031 1371.886719 1331.121094 1372.496094 1331.277344 1372.96875 C 1332.035156 1375.285156 1332.78125 1377.601562 1333.539062 1379.921875 C 1333.871094 1380.953125 1334.214844 1381.996094 1334.527344 1383.039062 C 1334.886719 1384.25 1334.851562 1384.324219 1333.667969 1384.628906 C 1331.054688 1385.292969 1328.441406 1385.929688 1325.832031 1386.59375 C 1325.019531 1386.796875 1324.222656 1387.039062 1323.421875 1387.277344 C 1322.699219 1387.5 1322.21875 1387.425781 1321.972656 1386.566406 Z M 1337.398438 1383.695312 C 1336.707031 1383.742188 1336.632812 1383.140625 1336.464844 1382.691406 C 1335.367188 1379.734375 1334.289062 1376.78125 1333.207031 1373.828125 C 1332.636719 1372.257812 1333.101562 1371.140625 1334.601562 1370.476562 C 1336.890625 1369.460938 1339.136719 1368.324219 1341.25 1366.976562 C 1342.164062 1366.394531 1342.558594 1366.652344 1343.050781 1367.445312 C 1345.402344 1371.261719 1346.84375 1375.441406 1348.136719 1379.699219 C 1348.292969 1380.214844 1348.367188 1380.703125 1347.648438 1380.898438 C 1344.304688 1381.804688 1340.964844 1382.734375 1337.613281 1383.648438 C 1337.546875 1383.667969 1337.480469 1383.679688 1337.398438 1383.695312 Z M 1334.019531 1360.234375 C 1334.695312 1360.144531 1335.265625 1360.347656 1335.839844 1360.6875 C 1337.554688 1361.703125 1339.152344 1362.859375 1340.492188 1364.316406 C 1340.417969 1364.925781 1339.917969 1365.027344 1339.550781 1365.222656 C 1337.222656 1366.441406 1334.878906 1367.613281 1332.414062 1368.546875 C 1331.636719 1368.839844 1331.277344 1368.722656 1330.953125 1367.953125 C 1330.003906 1365.703125 1329.691406 1363.300781 1328.847656 1360.863281 C 1330.742188 1360.632812 1332.386719 1360.449219 1334.027344 1360.226562 Z M 1327.207031 1361.039062 C 1328.128906 1363.714844 1328.949219 1366.117188 1329.792969 1368.519531 C 1329.929688 1368.925781 1330.003906 1369.320312 1329.515625 1369.46875 C 1326.957031 1370.226562 1324.390625 1370.9375 1321.445312 1371.289062 C 1322.617188 1367.289062 1323.808594 1363.714844 1327.207031 1361.039062 Z M 1324.160156 1362.496094 C 1322.15625 1365.304688 1320.796875 1367.953125 1319.957031 1370.863281 C 1319.800781 1371.40625 1319.414062 1371.710938 1318.839844 1371.757812 C 1317.070312 1371.90625 1315.296875 1372.164062 1313.484375 1372.015625 C 1314.261719 1369.246094 1319.957031 1364.066406 1324.167969 1362.507812 Z M 1308.988281 1382.828125 C 1309.230469 1379.855469 1310.089844 1377.050781 1311.539062 1374.425781 C 1312.257812 1373.117188 1312.25 1373.132812 1313.71875 1373.355469 C 1315.109375 1373.558594 1316.503906 1373.800781 1317.925781 1373.734375 C 1318.765625 1373.699219 1319.191406 1373.871094 1319.042969 1374.925781 C 1318.472656 1378.914062 1318.851562 1382.855469 1319.855469 1386.742188 C 1320.21875 1388.117188 1320.1875 1388.15625 1318.777344 1388.570312 C 1315.832031 1389.429688 1312.875 1390.261719 1309.800781 1391.136719 C 1308.933594 1388.3125 1308.769531 1385.578125 1308.980469 1382.828125 Z M 1317.253906 1406.308594 C 1315.285156 1403.988281 1313.734375 1401.40625 1312.425781 1398.679688 C 1311.484375 1396.714844 1310.632812 1394.710938 1310.125 1392.523438 C 1310.984375 1391.847656 1311.871094 1392.042969 1312.671875 1391.859375 C 1314.980469 1391.332031 1317.328125 1390.898438 1319.625 1390.324219 C 1320.476562 1390.113281 1320.890625 1390.179688 1321.214844 1391.0625 C 1322.542969 1394.765625 1324.453125 1398.183594 1326.503906 1401.523438 C 1327.222656 1402.707031 1327.207031 1402.714844 1326.050781 1403.371094 C 1324.039062 1404.515625 1322.027344 1405.632812 1320.03125 1406.796875 C 1318.472656 1407.710938 1318.480469 1407.746094 1317.253906 1406.308594 Z M 1319.515625 1408.375 C 1322.082031 1406.890625 1324.769531 1405.714844 1327.425781 1404.480469 C 1327.992188 1404.210938 1328.398438 1404.367188 1328.746094 1404.859375 C 1331.304688 1408.375 1334.824219 1410.730469 1338.554688 1412.882812 C 1332.882812 1414.609375 1323.253906 1412.558594 1319.515625 1408.386719 Z M 1343.039062 1412.511719 C 1342.515625 1412.605469 1342.015625 1412.660156 1341.542969 1412.410156 C 1337.4375 1410.128906 1333.519531 1407.601562 1330.613281 1403.796875 C 1330.539062 1403.703125 1330.53125 1403.554688 1330.464844 1403.351562 C 1332.183594 1402.363281 1334.09375 1401.894531 1335.96875 1401.3125 C 1337.003906 1400.988281 1338.074219 1400.777344 1339.125 1400.507812 C 1339.734375 1400.351562 1340.050781 1400.574219 1340.253906 1401.183594 C 1341.386719 1404.582031 1342.53125 1407.980469 1343.722656 1411.359375 C 1343.992188 1412.125 1343.789062 1412.390625 1343.03125 1412.519531 Z M 1350.75 1400.445312 C 1350.507812 1402.800781 1350.214844 1405.152344 1349.835938 1407.488281 C 1349.457031 1409.777344 1348.40625 1411.273438 1345.734375 1411.5625 C 1344.617188 1408.050781 1343.328125 1404.644531 1342.347656 1401.117188 C 1342.117188 1400.277344 1342.125 1399.789062 1343.167969 1399.695312 C 1345.273438 1399.503906 1347.371094 1399.207031 1349.476562 1399.03125 C 1350.777344 1398.921875 1350.886719 1399.113281 1350.757812 1400.445312 Z M 1350.046875 1396.28125 C 1347.417969 1396.402344 1344.8125 1396.75 1342.253906 1397.351562 C 1341.5 1397.527344 1341.222656 1397.175781 1341.019531 1396.539062 C 1340.011719 1393.363281 1338.996094 1390.1875 1337.972656 1387.019531 C 1337.769531 1386.402344 1337.898438 1386.058594 1338.542969 1385.882812 C 1341.691406 1385 1344.832031 1384.113281 1347.960938 1383.1875 C 1348.820312 1382.9375 1349.132812 1383.335938 1349.28125 1384.054688 C 1349.984375 1387.445312 1350.648438 1390.832031 1350.851562 1394.296875 C 1350.851562 1394.683594 1350.851562 1395.0625 1350.851562 1395.449219 C 1350.851562 1395.996094 1350.609375 1396.253906 1350.046875 1396.28125 Z M 1350.140625 1378.941406 C 1349.226562 1375.460938 1348.0625 1372.0625 1346.261719 1368.925781 C 1345.78125 1368.09375 1345.257812 1367.289062 1344.71875 1366.488281 C 1343.953125 1365.351562 1343.945312 1365.359375 1344.933594 1364.566406 C 1345.835938 1363.847656 1346.734375 1363.117188 1347.628906 1362.394531 C 1347.925781 1362.15625 1348.171875 1361.84375 1348.800781 1361.917969 C 1349.78125 1362.277344 1350.953125 1362.65625 1351.921875 1363.410156 C 1355.949219 1366.550781 1358.957031 1370.484375 1360.988281 1375.175781 C 1361.210938 1375.691406 1361.570312 1376.226562 1360.664062 1376.53125 C 1357.636719 1377.574219 1354.609375 1378.636719 1351.609375 1379.734375 C 1350.730469 1380.058594 1350.390625 1379.863281 1350.148438 1378.941406 Z M 1351.71875 1408.542969 C 1351.238281 1408.367188 1351.367188 1408.070312 1351.414062 1407.867188 C 1351.902344 1405.421875 1352.179688 1402.9375 1352.367188 1400.445312 C 1352.4375 1399.417969 1352.808594 1399.171875 1353.804688 1399.261719 C 1355.71875 1399.429688 1357.601562 1399.714844 1359.789062 1400.074219 C 1357.535156 1403.703125 1354.820312 1406.34375 1351.71875 1408.542969 Z M 1361.664062 1396.457031 C 1361.433594 1397.011719 1361.21875 1397.507812 1360.425781 1397.304688 C 1358.117188 1396.722656 1355.734375 1396.578125 1353.382812 1396.316406 C 1352.585938 1396.226562 1352.449219 1395.882812 1352.476562 1395.210938 C 1352.625 1391.265625 1351.949219 1387.40625 1351.230469 1383.566406 C 1351.035156 1382.515625 1351.320312 1382.117188 1352.292969 1381.777344 C 1355.179688 1380.734375 1358.054688 1379.617188 1360.898438 1378.441406 C 1361.773438 1378.082031 1362.160156 1378.230469 1362.410156 1379.125 C 1363.140625 1381.738281 1363.390625 1384.417969 1363.636719 1386.929688 C 1363.417969 1390.316406 1362.9375 1393.472656 1361.664062 1396.464844 Z M 1361.664062 1396.457031 " fill-opacity="1" fill-rule="nonzero"/><path fill="#dfd1a7" d="M 1371.71875 1334.117188 C 1370.128906 1333.554688 1368.679688 1333.710938 1367.441406 1334.929688 C 1366.917969 1335.445312 1366.425781 1335.898438 1365.605469 1335.511719 C 1363.980469 1334.746094 1362.621094 1335.085938 1361.542969 1336.535156 C 1361.128906 1337.097656 1360.5625 1337.375 1359.863281 1336.988281 C 1357.90625 1335.898438 1356.242188 1336.574219 1354.804688 1337.957031 C 1353.667969 1339.054688 1352.484375 1339.378906 1350.953125 1338.84375 C 1349.53125 1338.34375 1348.128906 1338.546875 1347.085938 1339.792969 C 1346.273438 1340.773438 1345.210938 1340.941406 1344.109375 1340.636719 C 1341.894531 1340.027344 1340.066406 1340.691406 1338.441406 1342.160156 C 1337.683594 1342.839844 1336.835938 1343.164062 1335.792969 1343.015625 C 1333.78125 1342.730469 1331.980469 1343.230469 1330.429688 1344.59375 C 1329.800781 1345.148438 1329.070312 1345.621094 1328.15625 1345.40625 C 1326.152344 1344.9375 1324.484375 1345.601562 1323.023438 1346.929688 C 1322.035156 1347.835938 1320.992188 1348.121094 1319.679688 1347.660156 C 1318.5625 1347.273438 1317.375 1347.226562 1316.386719 1348.078125 C 1315.210938 1349.09375 1313.902344 1349.265625 1312.425781 1349 C 1310.699219 1348.6875 1309.074219 1348.925781 1307.871094 1350.382812 C 1307.308594 1351.066406 1306.597656 1351.269531 1305.804688 1351.011719 C 1303.910156 1350.402344 1302.398438 1351.050781 1301.066406 1352.34375 C 1300.0625 1353.3125 1298.898438 1353.664062 1297.53125 1353.347656 C 1296.046875 1352.996094 1294.734375 1353.328125 1293.617188 1354.390625 C 1293.074219 1354.910156 1292.40625 1355.1875 1291.679688 1354.898438 C 1290.054688 1354.253906 1288.9375 1354.9375 1288.066406 1356.246094 C 1287.578125 1356.996094 1286.941406 1357.246094 1286.082031 1357.023438 C 1285.777344 1356.949219 1285.445312 1356.941406 1285.214844 1356.902344 C 1284.023438 1356.914062 1282.933594 1357.003906 1282.046875 1357.769531 C 1281.84375 1357.945312 1281.761719 1358.214844 1281.875 1358.472656 C 1282.003906 1358.757812 1282.261719 1358.757812 1282.519531 1358.65625 C 1283.582031 1358.261719 1284.726562 1358.242188 1285.75 1358.519531 C 1287.3125 1358.945312 1288.371094 1358.574219 1289.15625 1357.207031 C 1289.636719 1356.367188 1290.347656 1356.089844 1291.28125 1356.40625 C 1292.445312 1356.792969 1293.433594 1356.449219 1294.261719 1355.601562 C 1295.207031 1354.640625 1296.339844 1354.363281 1297.625 1354.679688 C 1299.074219 1355.039062 1300.320312 1354.648438 1301.335938 1353.625 C 1302.683594 1352.269531 1304.179688 1351.703125 1306.054688 1352.34375 C 1306.941406 1352.636719 1307.742188 1352.414062 1308.316406 1351.703125 C 1309.488281 1350.265625 1311.003906 1350.070312 1312.671875 1350.429688 C 1314.214844 1350.761719 1315.601562 1350.515625 1316.808594 1349.453125 C 1317.492188 1348.851562 1318.269531 1348.648438 1319.136719 1349 C 1321.03125 1349.765625 1322.617188 1349.304688 1324.058594 1347.910156 C 1325.019531 1346.976562 1326.199219 1346.523438 1327.59375 1346.820312 C 1328.949219 1347.105469 1330.132812 1346.71875 1331.148438 1345.785156 C 1332.367188 1344.679688 1333.808594 1344.234375 1335.421875 1344.464844 C 1336.871094 1344.679688 1338.101562 1344.289062 1339.117188 1343.257812 C 1340.511719 1341.84375 1342.152344 1341.402344 1344.054688 1341.945312 C 1345.523438 1342.363281 1346.742188 1341.964844 1347.683594 1340.820312 C 1348.488281 1339.832031 1349.523438 1339.535156 1350.609375 1339.96875 C 1352.699219 1340.800781 1354.359375 1340.332031 1355.800781 1338.695312 C 1356.003906 1338.464844 1356.308594 1338.308594 1356.574219 1338.132812 C 1357.332031 1337.632812 1358.082031 1337.605469 1358.9375 1337.996094 C 1361.015625 1338.925781 1361.035156 1338.890625 1362.550781 1337.300781 C 1363.574219 1336.230469 1363.898438 1336.082031 1365.21875 1336.8125 C 1366.316406 1337.421875 1367.136719 1337.367188 1367.894531 1336.371094 C 1368.632812 1335.398438 1369.621094 1335.105469 1370.792969 1335.253906 C 1371.042969 1335.289062 1371.3125 1335.269531 1371.558594 1335.28125 C 1371.910156 1335.28125 1372.253906 1335.160156 1372.289062 1334.808594 C 1372.335938 1334.46875 1372.023438 1334.265625 1371.707031 1334.152344 Z M 1371.71875 1334.117188 " fill-opacity="1" fill-rule="nonzero"/><path fill="#dfd1a7" d="M 1344.3125 1323.453125 C 1344.074219 1327.21875 1344.886719 1330.855469 1345.726562 1334.476562 C 1345.855469 1335.050781 1345.882812 1335.851562 1346.761719 1335.84375 C 1347.324219 1335.84375 1348.273438 1334.652344 1348.257812 1334.023438 C 1348.238281 1333.582031 1348.070312 1333.148438 1348.015625 1332.703125 C 1347.898438 1331.835938 1347.359375 1331.023438 1347.59375 1330.082031 C 1348.636719 1330.203125 1349.410156 1330.828125 1350.289062 1331.199219 C 1351.414062 1331.667969 1352.503906 1332.214844 1353.648438 1332.628906 C 1354.3125 1332.871094 1355.429688 1332.140625 1355.597656 1331.464844 C 1355.78125 1330.726562 1355.210938 1330.441406 1354.703125 1330.183594 C 1354.195312 1329.914062 1353.640625 1329.722656 1353.121094 1329.464844 C 1351.976562 1328.910156 1350.730469 1328.558594 1349.613281 1327.78125 C 1350.675781 1326.5 1351.738281 1325.300781 1352.21875 1323.730469 C 1352.875 1321.597656 1352.023438 1319.804688 1349.890625 1319.214844 C 1348.578125 1318.84375 1347.175781 1318.726562 1346.03125 1319.667969 C 1345.421875 1320.175781 1344.941406 1320.046875 1344.222656 1319.613281 C 1343.84375 1321.042969 1344.386719 1322.234375 1344.304688 1323.445312 Z M 1346.273438 1322.945312 C 1346.417969 1321.246094 1347.554688 1320.515625 1349.199219 1321.023438 C 1350.40625 1321.394531 1350.769531 1322.1875 1350.242188 1323.371094 C 1349.660156 1324.691406 1348.726562 1325.722656 1347.527344 1326.5 C 1346.808594 1326.96875 1346.492188 1326.832031 1346.355469 1325.992188 C 1346.253906 1325.363281 1346.253906 1324.726562 1346.207031 1324.089844 C 1346.226562 1324.089844 1346.242188 1324.089844 1346.253906 1324.089844 C 1346.253906 1323.710938 1346.226562 1323.324219 1346.253906 1322.945312 Z M 1346.273438 1322.945312 " fill-opacity="1" fill-rule="nonzero"/><path fill="#dfd1a7" d="M 1289.304688 1349.414062 C 1289.996094 1349.480469 1290.386719 1348.777344 1290.617188 1348.179688 C 1290.746094 1347.835938 1290.664062 1347.421875 1290.664062 1347.03125 C 1290.664062 1345.945312 1290.707031 1344.84375 1290.636719 1343.753906 C 1290.578125 1342.878906 1290.929688 1342.445312 1291.761719 1342.289062 C 1292.769531 1342.09375 1293.8125 1341.984375 1294.761719 1341.621094 C 1295.722656 1341.253906 1296.019531 1341.652344 1296.277344 1342.433594 C 1296.765625 1343.894531 1297.273438 1345.351562 1297.808594 1346.792969 C 1297.976562 1347.234375 1297.957031 1347.9375 1298.640625 1347.9375 C 1299.269531 1347.9375 1299.628906 1347.394531 1299.933594 1346.902344 C 1300.265625 1346.367188 1300.164062 1345.785156 1299.988281 1345.222656 C 1298.613281 1340.996094 1296.867188 1336.933594 1294.292969 1333.277344 C 1293.957031 1332.816406 1293.550781 1332.371094 1293.089844 1332.046875 C 1291.667969 1331.050781 1290.515625 1331.457031 1289.988281 1333.101562 C 1289.792969 1333.710938 1289.664062 1334.347656 1289.5625 1334.976562 C 1289.066406 1337.949219 1288.734375 1340.949219 1288.734375 1344.058594 C 1288.503906 1345.316406 1288.734375 1346.664062 1288.734375 1348.011719 C 1288.734375 1348.527344 1288.546875 1349.351562 1289.316406 1349.414062 Z M 1291.714844 1333.941406 C 1293.175781 1335.574219 1293.96875 1337.144531 1294.652344 1338.898438 C 1293.367188 1339.425781 1292.148438 1339.925781 1290.707031 1340.515625 C 1290.5625 1338.199219 1291.085938 1336.203125 1291.714844 1333.941406 Z M 1291.714844 1333.941406 " fill-opacity="1" fill-rule="nonzero"/><path fill="#dfd1a7" d="M 1322.433594 1342.839844 C 1323.207031 1342.859375 1323.714844 1342.074219 1324.085938 1341.390625 C 1324.410156 1340.792969 1324.335938 1340.144531 1324.195312 1339.507812 C 1324.039062 1338.75 1323.882812 1337.996094 1323.652344 1337.265625 C 1323.308594 1336.210938 1323.503906 1335.539062 1324.527344 1334.882812 C 1326.28125 1333.765625 1327.6875 1332.242188 1328.433594 1330.246094 C 1329.238281 1328.105469 1328.378906 1326.296875 1326.207031 1325.519531 C 1324.890625 1325.050781 1323.578125 1325.105469 1322.238281 1325.464844 C 1321.445312 1325.675781 1320.734375 1326.167969 1319.828125 1326.011719 C 1319.144531 1325.898438 1319.257812 1326.519531 1319.230469 1326.878906 C 1319.21875 1327.679688 1321.085938 1339.90625 1321.4375 1341.199219 C 1321.609375 1341.84375 1321.582031 1342.832031 1322.433594 1342.851562 Z M 1322.210938 1326.730469 C 1323.367188 1326.5625 1324.519531 1326.519531 1325.582031 1327.136719 C 1326.679688 1327.773438 1326.855469 1328.382812 1326.320312 1329.519531 C 1325.664062 1330.902344 1324.425781 1332.046875 1322.617188 1332.898438 C 1322.148438 1331.21875 1321.683594 1329.675781 1321.277344 1328.132812 C 1321 1327.082031 1321.132812 1326.894531 1322.203125 1326.738281 Z M 1322.210938 1326.730469 " fill-opacity="1" fill-rule="nonzero"/><path fill="#dfd1a7" d="M 1355.644531 1320.195312 C 1356.34375 1320.082031 1357.046875 1319.992188 1357.730469 1319.816406 C 1358.691406 1319.574219 1359.039062 1319.824219 1359.179688 1320.894531 C 1359.621094 1324.210938 1359.761719 1327.542969 1360.148438 1330.855469 C 1360.222656 1331.484375 1360.15625 1332.316406 1360.878906 1332.480469 C 1361.671875 1332.667969 1362.085938 1331.890625 1362.484375 1331.320312 C 1362.816406 1330.839844 1362.972656 1330.265625 1362.964844 1329.675781 C 1362.964844 1328.84375 1362.992188 1328.003906 1362.925781 1327.171875 C 1362.769531 1324.996094 1362.578125 1322.824219 1362.199219 1320.671875 C 1361.875 1318.84375 1361.910156 1318.816406 1363.648438 1318.273438 C 1364.582031 1317.976562 1365.476562 1317.644531 1366.148438 1316.90625 C 1366.363281 1316.675781 1366.519531 1316.390625 1366.675781 1316.160156 C 1366.613281 1315.660156 1366.34375 1315.382812 1365.964844 1315.273438 C 1365.078125 1315.003906 1364.191406 1315.078125 1363.316406 1315.363281 C 1360.933594 1316.140625 1358.550781 1316.898438 1356.167969 1317.671875 C 1355.746094 1317.8125 1355.328125 1317.996094 1354.949219 1318.226562 C 1354.433594 1318.550781 1354.414062 1319.078125 1354.582031 1319.59375 C 1354.738281 1320.09375 1355.144531 1320.277344 1355.644531 1320.195312 Z M 1355.644531 1320.195312 " fill-opacity="1" fill-rule="nonzero"/><path fill="#dfd1a7" d="M 1282.03125 1350.949219 C 1281.714844 1349.839844 1281.496094 1348.703125 1281.152344 1347.605469 C 1280.875 1346.691406 1281.050781 1346.054688 1281.828125 1345.445312 C 1283.148438 1344.410156 1284.253906 1343.175781 1284.992188 1341.632812 C 1285.769531 1340.007812 1286.371094 1338.34375 1285.058594 1336.765625 C 1283.785156 1335.234375 1282.011719 1335.363281 1280.257812 1335.660156 C 1280.128906 1335.675781 1280.007812 1335.722656 1279.886719 1335.769531 C 1279.1875 1336.054688 1278.550781 1336.359375 1277.726562 1335.90625 C 1277.15625 1335.585938 1276.765625 1335.992188 1276.777344 1336.664062 C 1276.777344 1336.921875 1276.777344 1337.171875 1276.777344 1337.503906 C 1277.054688 1339.332031 1277.292969 1341.246094 1277.625 1343.136719 C 1278.171875 1346.164062 1278.640625 1349.203125 1279.480469 1352.167969 C 1279.640625 1352.710938 1279.75 1353.429688 1280.414062 1353.488281 C 1281.105469 1353.550781 1281.503906 1352.921875 1281.890625 1352.40625 C 1282.242188 1351.945312 1282.167969 1351.464844 1282.019531 1350.949219 Z M 1280.40625 1343.96875 C 1279.628906 1342 1279.425781 1340.015625 1278.863281 1338.132812 C 1278.667969 1337.476562 1279.046875 1337.171875 1279.648438 1337.109375 C 1280.285156 1337.042969 1280.921875 1336.949219 1281.558594 1336.996094 C 1283.644531 1337.144531 1284.246094 1338.207031 1283.339844 1340.109375 C 1282.65625 1341.558594 1281.742188 1342.839844 1280.40625 1343.957031 Z M 1280.40625 1343.96875 " fill-opacity="1" fill-rule="nonzero"/><path fill="#dfd1a7" d="M 1332.875 1337.855469 C 1334.296875 1339.886719 1336.21875 1340.191406 1338.148438 1338.667969 C 1340.703125 1336.644531 1341.738281 1333.921875 1341.757812 1330.738281 C 1341.746094 1327.894531 1341.109375 1325.878906 1339.6875 1324.285156 C 1337.351562 1321.644531 1333.621094 1322.214844 1332.292969 1325.429688 C 1331 1328.558594 1330.878906 1331.78125 1331.609375 1335.058594 C 1331.832031 1336.074219 1332.265625 1337.007812 1332.855469 1337.855469 Z M 1332.949219 1327.386719 C 1333.132812 1325.84375 1334.101562 1325.03125 1335.542969 1324.691406 C 1336.800781 1324.394531 1337.878906 1324.894531 1338.792969 1326.195312 C 1340.804688 1329.046875 1340.316406 1333.914062 1337.769531 1336.3125 C 1336.28125 1337.707031 1335.074219 1337.578125 1334.019531 1335.816406 C 1332.976562 1334.050781 1332.691406 1332.09375 1332.679688 1330.0625 C 1332.765625 1329.167969 1332.839844 1328.273438 1332.941406 1327.386719 Z M 1332.949219 1327.386719 " fill-opacity="1" fill-rule="nonzero"/><path fill="#dfd1a7" d="M 1312.121094 1337.429688 C 1312.804688 1337.78125 1313.53125 1338.066406 1314.167969 1338.484375 C 1315.167969 1339.148438 1315.285156 1339.636719 1314.878906 1340.78125 C 1314.574219 1341.632812 1314.113281 1342.40625 1313.570312 1343.128906 C 1313.171875 1343.664062 1312.921875 1344.234375 1313.050781 1344.917969 C 1313.136719 1345.324219 1313.300781 1345.648438 1313.949219 1345.582031 C 1314.105469 1345.480469 1314.390625 1345.324219 1314.632812 1345.132812 C 1316.015625 1343.996094 1316.902344 1342.535156 1317.417969 1340.839844 C 1318.039062 1338.796875 1317.390625 1336.96875 1315.601562 1335.832031 C 1314.953125 1335.425781 1314.226562 1335.152344 1313.53125 1334.808594 C 1311.890625 1333.996094 1311.601562 1333.019531 1312.542969 1331.402344 C 1312.96875 1330.664062 1313.625 1330.144531 1314.253906 1329.59375 C 1314.4375 1329.425781 1314.585938 1329.175781 1314.445312 1328.910156 C 1314.316406 1328.660156 1314.050781 1328.621094 1313.789062 1328.59375 C 1313.328125 1328.558594 1312.90625 1328.667969 1312.507812 1328.917969 C 1311.289062 1329.703125 1310.335938 1330.710938 1309.894531 1332.132812 C 1309.183594 1334.421875 1309.976562 1336.332031 1312.109375 1337.414062 Z M 1312.121094 1337.429688 " fill-opacity="1" fill-rule="nonzero"/><path fill="#dfd1a7" d="M 1303.625 1339.507812 C 1304.503906 1339.683594 1305.378906 1339.894531 1306.175781 1340.339844 C 1306.746094 1340.652344 1306.996094 1341.058594 1306.710938 1341.761719 C 1306.320312 1342.710938 1305.859375 1343.625 1305.304688 1344.492188 C 1305.027344 1344.929688 1304.707031 1345.335938 1304.6875 1345.878906 C 1304.667969 1346.339844 1304.707031 1346.8125 1305.128906 1347.078125 C 1305.621094 1347.382812 1305.972656 1347.023438 1306.3125 1346.738281 C 1307.640625 1345.628906 1308.40625 1344.160156 1308.960938 1342.574219 C 1309.839844 1340.0625 1309.109375 1338.519531 1306.589844 1337.589844 C 1305.75 1337.273438 1304.871094 1337.082031 1304.003906 1336.867188 C 1303.332031 1336.703125 1302.832031 1336.398438 1302.664062 1335.667969 C 1302.175781 1333.609375 1303.535156 1331.699219 1305.777344 1331.550781 C 1304.835938 1330.082031 1304.070312 1329.851562 1302.933594 1330.691406 C 1301.574219 1331.699219 1300.847656 1333.109375 1300.605469 1334.753906 C 1300.273438 1337.117188 1301.132812 1339 1303.636719 1339.507812 Z M 1303.625 1339.507812 " fill-opacity="1" fill-rule="nonzero"/></svg>